Coordinates
version=1
nRows=24
nColumns=22
inDegrees=yes

Units are S.I. units (second, meters, Newtons, ...)
If the header above contains a line with 'inDegrees', this indicates whether rotational values are in degrees (yes) or radians (no).

endheader
time	pelvis_tilt	pelvis_list	pelvis_rotation	pelvis_tx	pelvis_ty	pelvis_tz	hip_flexion_r	hip_adduction_r	hip_rotation_r	knee_angle_r	ankle_angle_r	subtalar_angle_r	hip_flexion_l	hip_adduction_l	hip_rotation_l	knee_angle_l	ankle_angle_l	subtalar_angle_l	lumbar_extension	lumbar_bending	lumbar_rotation
      1.25000000	     -5.57496610	      4.23674700	    -47.64645269	     -1.08575855	      0.83582907	     -0.00146114	    -13.23157058	     -5.32304142	     10.22548863	    -14.73657677	     19.92307371	      5.43150947	     40.07501769	    -10.86081773	     -8.31829363	    -32.82214168	      1.13829449	      2.36884937	     -2.59089253	     -2.21124032	     18.96407113
      1.26000000	     -5.46013443	      4.45029210	    -47.57570380	     -1.07643103	      0.83673629	      0.00266591	    -13.32576243	     -5.78813024	     10.45098307	    -15.43275722	     18.52072719	      6.25195951	     40.00069133	    -10.38294172	     -8.25180318	    -33.79259037	      1.61935433	      2.01812995	     -2.53853537	     -2.70784844	     18.96648138
      1.27000000	     -5.39531376	      4.62281286	    -47.50050854	     -1.06696896	      0.83777096	      0.00685915	    -13.32741478	     -6.16279562	     10.70476731	    -16.26161684	     16.97115588	      7.09703611	     39.85626291	     -9.94940437	     -8.19123895	    -34.65543522	      2.23883437	      1.64700017	     -2.46384882	     -3.12685673	     18.99157305
      1.28000000	     -5.38819182	      4.74946864	    -47.41903851	     -1.05737237	      0.83891910	      0.01109360	    -13.21260447	     -6.43394175	     10.97187518	    -17.25633902	     15.27409511	      7.95775537	     39.64057603	     -9.56725087	     -8.13827414	    -35.39826021	      2.97268302	      1.27164833	     -2.36205570	     -3.45103624	     19.03852548
      1.29000000	     -5.42503987	      4.84602275	    -47.32088444	     -1.04762866	      0.84015888	      0.01535811	    -12.95940277	     -6.61932186	     11.19581200	    -18.44928034	     13.44174399	      8.86472391	     39.35116247	     -9.21095559	     -8.09497894	    -36.01284279	      3.79717619	      0.88952603	     -2.22737389	     -3.70112175	     19.07018024
      1.30000000	     -5.52946969	      4.84269784	    -47.24443582	     -1.03788478	      0.84156541	      0.01968658	    -12.57006384	     -6.64008336	     11.47732625	    -19.86642903	     11.42087704	      9.66172762	     38.96525910	     -8.97637212	     -8.05310960	    -36.51644717	      4.67361590	      0.55041135	     -2.10763533	     -3.80640791	     19.15540945
      1.31000000	     -5.66242862	      4.81393447	    -47.14425363	     -1.02806224	      0.84307003	      0.02400365	    -11.99685074	     -6.58145739	     11.65888237	    -21.55631480	      9.27348407	     10.49231929	     38.50801826	     -8.75458929	     -8.00943978	    -36.89503899	      5.57779361	      0.20334588	     -1.96849642	     -3.85170056	     19.19848909
      1.32000000	     -5.80563024	      4.74460236	    -47.02268967	     -1.01821645	      0.84469080	      0.02828918	    -11.24211753	     -6.44827806	     11.71183876	    -23.54541133	      7.01524066	     11.27593377	     37.97175065	     -8.55239821	     -7.97234149	    -37.17167274	      6.49005880	     -0.13006876	     -1.84498632	     -3.83877469	     19.19696661
      1.33000000	     -5.96910268	      4.63576045	    -46.90597383	     -1.00847191	      0.84643512	      0.03253862	    -10.27503042	     -6.23102529	     11.70888891	    -25.84442668	      4.65059284	     11.85270256	     37.36104608	     -8.38570217	     -7.90566160	    -37.33119744	      7.35858504	     -0.41089711	     -1.73659994	     -3.76603990	     19.21223268
      1.34000000	     -6.11046797	      4.51897415	    -46.75954061	     -0.99878363	      0.84823721	      0.03667863	     -9.09865496	     -6.00292948	     11.52968767	    -28.46691418	      2.26036887	     12.30523252	     36.69501407	     -8.19191263	     -7.84081639	    -37.41074510	      8.19133640	     -0.67879895	     -1.65686322	     -3.68547637	     19.16028076
      1.35000000	     -6.22917109	      4.39411415	    -46.59365030	     -0.98921970	      0.85005333	      0.04071052	     -7.71596518	     -5.77510717	     11.20841722	    -31.39014489	     -0.10994498	     12.61071389	     35.98693507	     -7.98585276	     -7.78997477	    -37.43046938	      8.99534807	     -0.95038843	     -1.61183910	     -3.59950809	     19.04801592
      1.36000000	     -6.30442238	      4.29428158	    -46.41933026	     -0.97981046	      0.85185547	      0.04460990	     -6.12760671	     -5.60070198	     10.78220012	    -34.57714990	     -2.43063081	     12.71187952	     35.23321863	     -7.72582396	     -7.74152051	    -37.36481861	      9.72801797	     -1.18379040	     -1.59510773	     -3.55256951	     18.90691467
      1.37000000	     -6.34756075	      4.22420814	    -46.22698665	     -0.97056692	      0.85355311	      0.04834385	     -4.34737398	     -5.48527297	     10.26745453	    -37.96963480	     -4.64433553	     12.63272041	     34.47411587	     -7.41533844	     -7.68929024	    -37.25726388	     10.43468749	     -1.45525502	     -1.59864269	     -3.53433057	     18.71739050
      1.38000000	     -6.29441887	      4.20363434	    -46.03615666	     -0.96146822	      0.85518764	      0.05194229	     -2.43882379	     -5.51760967	      9.67066073	    -41.49595535	     -6.68326546	     12.51683311	     33.64882157	     -7.00754256	     -7.69183805	    -37.07142929	     11.04460637	     -1.62214763	     -1.65596748	     -3.61672026	     18.49869928
      1.39000000	     -6.20134998	      4.20791280	    -45.83603281	     -0.95251809	      0.85667398	      0.05541268	     -0.42562692	     -5.63238249	      9.03734440	    -45.06219752	     -8.44730161	     12.32833046	     32.81448252	     -6.55826801	     -7.71619069	    -36.86425614	     11.66132776	     -1.82273819	     -1.74251695	     -3.73040250	     18.23300276
      1.40000000	     -6.05191367	      4.22899322	    -45.63323085	     -0.94369037	      0.85807561	      0.05878304	      1.62882453	     -5.83508351	      8.40740760	    -48.57474325	     -9.83302233	     12.14954452	     31.93698721	     -6.06001656	     -7.76315289	    -36.61368918	     12.25346692	     -2.02336607	     -1.87470343	     -3.88365835	     17.92979909
      1.41000000	     -5.86252884	      4.24683159	    -45.42498126	     -0.93497560	      0.85941541	      0.06208117	      3.68318539	     -6.08898491	      7.80780337	    -51.95795963	    -10.72712133	     12.01936955	     31.01667880	     -5.53929092	     -7.81804840	    -36.32451797	     12.82587687	     -2.21629987	     -2.05545886	     -4.04876327	     17.59228088
      1.42000000	     -5.66995969	      4.24448054	    -45.21141153	     -0.92636420	      0.86070660	      0.06533853	      5.72102398	     -6.33119402	      7.26707033	    -55.14786500	    -11.02921102	     11.83729520	     30.07406823	     -5.03758155	     -7.87851381	    -36.00967445	     13.39814467	     -2.49232020	     -2.26254265	     -4.18329690	     17.21276588
      1.43000000	     -5.47463718	      4.20141980	    -44.96214952	     -0.91779370	      0.86204310	      0.06857277	      7.68682996	     -6.53533461	      6.75991289	    -58.07407189	    -10.75204646	     11.77489258	     29.07775460	     -4.54627861	     -7.87295377	    -35.63138093	     13.91825744	     -2.58998394	     -2.50948375	     -4.27293328	     16.77699904
      1.44000000	     -5.32545630	      4.11997438	    -44.69781646	     -0.90931195	      0.86335888	      0.07181106	      9.62958167	     -6.65144095	      6.29412388	    -60.73451551	     -9.91881065	     11.56535969	     28.09516480	     -4.12867232	     -7.86075057	    -35.25061704	     14.40698983	     -2.74965822	     -2.75139552	     -4.28307600	     16.33041829
      1.45000000	     -5.23399905	      3.98910469	    -44.40926003	     -0.90088183	      0.86469196	      0.07510053	     11.52979625	     -6.64656792	      5.85455026	    -63.08800758	     -8.69514995	     11.01624678	     27.10992621	     -3.79074229	     -7.80417914	    -34.83994116	     14.91605032	     -3.02614557	     -2.97888470	     -4.19774182	     15.84226063
      1.46000000	     -5.17779101	      3.82996069	    -44.08412116	     -0.89248129	      0.86604501	      0.07840363	     13.38364331	     -6.55969639	      5.43531375	    -65.13257261	     -7.18992953	     10.58095247	     26.12001168	     -3.49157076	     -7.68194470	    -34.39211291	     15.38607823	     -3.16670667	     -3.19700023	     -4.05289077	     15.31721378
      1.47000000	     -5.16198408	      3.63878743	    -43.72775541	     -0.88409712	      0.86743326	      0.08177632	     15.17670406	     -6.37757666	      5.03156836	    -66.84209584	     -5.54798324	     10.18282412	     25.11760479	     -3.24634884	     -7.51659965	    -33.89506313	     15.80161419	     -3.29414479	     -3.39323097	     -3.84324205	     14.72907501
      1.48000000	     -5.16868938	      3.40992037	    -43.36556122	     -0.87578098	      0.86882378	      0.08520770	     16.91457608	     -6.11115812	      4.64745465	    -68.24288078	     -3.93190566	      9.68877570	     24.10824783	     -3.05840297	     -7.32314700	    -33.40128247	     16.23378283	     -3.47808072	     -3.59254002	     -3.58324488	     14.16060487
